<?xml version="1.0" encoding="UTF-8"?>
<svg xmlns="http://www.w3.org/2000/svg" xmlns:xlink="http://www.w3.org/1999/xlink" viewBox="0 0 150 150" version="1.1">
<g id="surface1">
<path style=" stroke:none;fill-rule:evenodd;fill:rgb(1.568627%,1.568627%,1.568627%);fill-opacity:1;" d="M 33.332031 8.332031 L 33.332031 16.667969 L 16.667969 16.667969 L 16.667969 33.332031 L 0 33.332031 L 0 83.332031 L 16.667969 83.332031 L 16.667969 100 L 33.332031 100 L 33.332031 116.667969 L 50 116.667969 L 50 133.332031 L 66.667969 133.332031 L 66.667969 150 L 83.332031 150 L 83.332031 133.332031 L 100 133.332031 L 100 116.667969 L 116.667969 116.667969 L 116.667969 100 L 133.332031 100 L 133.332031 83.335938 L 141.699219 83.304688 L 150.0625 83.269531 L 150.125 33.269531 L 141.730469 33.304688 L 133.332031 33.335938 L 133.332031 16.667969 L 116.667969 16.667969 L 116.667969 0 L 83.332031 0 L 83.332031 16.667969 L 66.667969 16.667969 L 66.667969 0 L 33.332031 0 L 33.332031 8.332031 M 33.332031 25 L 33.332031 33.332031 L 16.667969 33.332031 L 16.667969 83.332031 L 33.332031 83.332031 L 33.332031 100 L 50 100 L 50 116.667969 L 66.667969 116.667969 L 66.667969 133.332031 L 83.332031 133.332031 L 83.332031 116.667969 L 100 116.667969 L 100 100 L 116.667969 100 L 116.667969 83.332031 L 133.332031 83.332031 L 133.332031 33.332031 L 116.667969 33.332031 L 116.667969 16.667969 L 83.332031 16.667969 L 83.332031 33.332031 L 66.667969 33.332031 L 66.667969 16.667969 L 33.332031 16.667969 L 33.332031 25 M 0.0625 58.332031 C 0.0625 72.117188 0.0742188 77.738281 0.09375 70.824219 C 0.113281 63.910156 0.113281 52.628906 0.09375 45.761719 C 0.0742188 38.890625 0.0625 44.550781 0.0625 58.332031 "/>
<path style=" stroke:none;fill-rule:evenodd;fill:rgb(26.666667%,26.666667%,26.666667%);fill-opacity:1;" d="M 33.332031 25 L 33.332031 33.332031 L 16.667969 33.332031 L 16.667969 83.332031 L 33.332031 83.332031 L 33.332031 100 L 50 100 L 50 116.667969 L 66.667969 116.667969 L 66.667969 133.332031 L 83.332031 133.332031 L 83.332031 116.667969 L 100 116.667969 L 100 100 L 116.667969 100 L 116.667969 83.332031 L 133.332031 83.332031 L 133.332031 33.332031 L 116.667969 33.332031 L 116.667969 16.667969 L 83.332031 16.667969 L 83.332031 33.332031 L 66.667969 33.332031 L 66.667969 16.667969 L 33.332031 16.667969 L 33.332031 25 "/>
</g>
</svg>
