<svg xmlns="http://www.w3.org/2000/svg" xmlns:xlink="http://www.w3.org/1999/xlink" version="1.1" viewBox="37.5 28.13 84.38 84.38">
<g id="surface1">
<path style=" stroke:none;fill-rule:evenodd;fill:rgb(98.823529%,1.568627%,1.568627%);fill-opacity:1;" d="M 56.25 42.1875 L 56.25 46.875 L 46.875 46.875 L 46.875 75 L 56.25 75 L 56.25 84.375 L 65.625 84.375 L 65.625 93.75 L 75 93.75 L 75 103.125 L 84.375 103.125 L 84.375 93.75 L 93.75 93.75 L 93.75 84.375 L 103.125 84.375 L 103.125 75 L 112.5 75 L 112.5 46.875 L 103.125 46.875 L 103.125 37.5 L 84.375 37.5 L 84.375 46.875 L 75 46.875 L 75 37.5 L 56.25 37.5 L 56.25 42.1875 M 56.25 56.25 L 56.25 65.625 L 65.625 65.625 L 65.625 75 L 75 75 L 75 56.25 L 65.625 56.25 L 65.625 46.875 L 56.25 46.875 L 56.25 56.25 M 93.75 51.5625 L 93.75 56.25 L 84.375 56.25 L 84.375 75 L 93.75 75 L 93.75 65.625 L 103.125 65.625 L 103.125 46.875 L 93.75 46.875 L 93.75 51.5625 "/>
<path style=" stroke:none;fill-rule:evenodd;fill:rgb(1.568627%,1.568627%,1.568627%);fill-opacity:1;" d="M 56.25 32.8125 L 56.25 37.5 L 46.875 37.5 L 46.875 46.875 L 37.5 46.875 L 37.5 75 L 46.875 75 L 46.875 84.375 L 56.25 84.375 L 56.25 93.75 L 65.625 93.75 L 65.625 103.125 L 75 103.125 L 75 112.5 L 84.375 112.5 L 84.375 103.125 L 93.75 103.125 L 93.75 93.75 L 103.125 93.75 L 103.125 84.375 L 112.5 84.375 L 112.5 75 L 121.875 75 L 121.875 46.875 L 112.5 46.875 L 112.5 37.5 L 103.125 37.5 L 103.125 28.125 L 84.375 28.125 L 84.375 37.5 L 75 37.5 L 75 28.125 L 56.25 28.125 L 56.25 32.8125 M 56.25 42.1875 L 56.25 46.875 L 46.875 46.875 L 46.875 75 L 56.25 75 L 56.25 84.375 L 65.625 84.375 L 65.625 93.75 L 75 93.75 L 75 103.125 L 84.375 103.125 L 84.375 93.75 L 93.75 93.75 L 93.75 84.375 L 103.125 84.375 L 103.125 75 L 112.5 75 L 112.5 46.875 L 103.125 46.875 L 103.125 37.5 L 84.375 37.5 L 84.375 46.875 L 75 46.875 L 75 37.5 L 56.25 37.5 L 56.25 42.1875 M 56.25 56.25 L 56.25 65.625 L 65.625 65.625 L 65.625 75 L 75 75 L 75 56.25 L 65.625 56.25 L 65.625 46.875 L 56.25 46.875 L 56.25 56.25 M 93.75 51.5625 L 93.75 56.25 L 84.375 56.25 L 84.375 75 L 93.75 75 L 93.75 65.625 L 103.125 65.625 L 103.125 46.875 L 93.75 46.875 L 93.75 51.5625 "/>
</g>
</svg>